<?xml version="1.0" encoding="UTF-8" standalone="no"?>
<!-- Created with Inkscape (http://www.inkscape.org/) -->

<svg
   width="211mm"
   height="136mm"
   viewBox="0 0 211 136"
   version="1.1"
   id="svg1"
   inkscape:version="1.3.2 (091e20e, 2023-11-25)"
   sodipodi:docname="back.svg"
   xmlns:inkscape="http://www.inkscape.org/namespaces/inkscape"
   xmlns:sodipodi="http://sodipodi.sourceforge.net/DTD/sodipodi-0.dtd"
   xmlns="http://www.w3.org/2000/svg"
   xmlns:svg="http://www.w3.org/2000/svg">
  <sodipodi:namedview
     id="namedview1"
     pagecolor="#ffffff"
     bordercolor="#999999"
     borderopacity="1"
     inkscape:showpageshadow="0"
     inkscape:pageopacity="0"
     inkscape:pagecheckerboard="0"
     inkscape:deskcolor="#d1d1d1"
     inkscape:document-units="mm"
     inkscape:zoom="0.33470447"
     inkscape:cx="942.62261"
     inkscape:cy="875.39912"
     inkscape:window-width="1440"
     inkscape:window-height="847"
     inkscape:window-x="0"
     inkscape:window-y="25"
     inkscape:window-maximized="0"
     inkscape:current-layer="layer1"
     showguides="true" />
  <defs
     id="defs1">
    <rect
       x="26.456694"
       y="75.533752"
       width="894.38403"
       height="889.61975"
       id="rect2" />
  </defs>
  <g
     inkscape:label="Laag 1"
     inkscape:groupmode="layer"
     id="layer1"
     transform="translate(-1.5,-1.5)">
    <path
       id="rect3"
       style="fill:#800000;stroke-width:10;stroke-linejoin:round;paint-order:stroke fill markers"
       d="M 1.5,1.5 V 137.49997 H 212.50004 V 1.5 Z M 6.5002116,3.49988 A 3,3 0 0 1 9.5000285,6.4997 3,3 0 0 1 6.5002116,9.50003 3,3 0 0 1 3.4998779,6.4997 3,3 0 0 1 6.5002116,3.49988 Z m 200.9996184,0 a 3,3 0 0 1 3.00033,2.99982 3,3 0 0 1 -3.00033,3.00033 3,3 0 0 1 -2.99982,-3.00033 3,3 0 0 1 2.99982,-2.99982 z M 10.499967,61.5289 a 2,2 0 0 1 2.000395,1.99987 v 4.36098 a 5,5 0 0 1 2.999817,4.5806 5,5 0 0 1 -5.000212,5.00021 5,5 0 0 1 -4.9996944,-5.00021 5,5 0 0 1 2.9998169,-4.57698 v -4.3646 A 2,2 0 0 1 10.499967,61.5289 Z m 192.999593,0 a 2,2 0 0 1 2.00039,1.99987 v 4.36098 a 5,5 0 0 1 2.99982,4.5806 5,5 0 0 1 -5.00021,5.00021 5,5 0 0 1 -4.9997,-5.00021 5,5 0 0 1 2.99982,-4.57698 v -4.3646 a 2,2 0 0 1 1.99988,-1.99987 z M 6.5002116,129.49994 a 3,3 0 0 1 2.9998169,2.99982 3,3 0 0 1 -2.9998169,3.00033 3,3 0 0 1 -3.0003337,-3.00033 3,3 0 0 1 3.0003337,-2.99982 z m 200.9996184,0 a 3,3 0 0 1 3.00033,2.99982 3,3 0 0 1 -3.00033,3.00033 3,3 0 0 1 -2.99982,-3.00033 3,3 0 0 1 2.99982,-2.99982 z" />
    <path
       id="rect26"
       style="fill:#800000;stroke-width:10;stroke-linejoin:round;paint-order:stroke fill markers"
       d="m 1.5,1.5 v 11.10216 113.79564 11.10216 h 11.10217 188.79571 11.10216 V 126.24019 12.75978 1.5 H 201.39788 12.60217 Z m 11.42876,2.99981 h 188.27016 a 9.5,9.5 0 0 0 8.30131,8.30131 v 113.39773 a 9.5,9.5 0 0 0 -8.30131,8.3013 H 12.92876 A 9.5,9.5 0 0 0 4.49982,126.07121 V 12.92876 A 9.5,9.5 0 0 0 12.92876,4.49981 Z M 6.50021,5.25016 A 1.25,1.25 0 0 1 7.75027,6.50021 1.25,1.25 0 0 1 6.50021,7.74975 1.25,1.25 0 0 1 5.25016,6.50021 1.25,1.25 0 0 1 6.50021,5.25016 Z m 200.99962,0 a 1.25,1.25 0 0 1 1.25005,1.25005 1.25,1.25 0 0 1 -1.25005,1.24954 1.25,1.25 0 0 1 -1.25005,-1.24954 1.25,1.25 0 0 1 1.25005,-1.25005 z M 6.50021,131.25022 a 1.25,1.25 0 0 1 1.25006,1.24953 1.25,1.25 0 0 1 -1.25006,1.25006 1.25,1.25 0 0 1 -1.25005,-1.25006 1.25,1.25 0 0 1 1.25005,-1.24953 z m 200.99962,0 a 1.25,1.25 0 0 1 1.25005,1.24953 1.25,1.25 0 0 1 -1.25005,1.25006 1.25,1.25 0 0 1 -1.25005,-1.25006 1.25,1.25 0 0 1 1.25005,-1.24953 z" />
  </g>
</svg>
