<?xml version="1.0" encoding="UTF-8" standalone="no"?>
<!-- Created with Inkscape (http://www.inkscape.org/) -->

<svg
   width="211mm"
   height="136mm"
   viewBox="0 0 211 136"
   version="1.1"
   id="svg1"
   inkscape:version="1.3.2 (091e20e, 2023-11-25)"
   sodipodi:docname="tekening.svg"
   xmlns:inkscape="http://www.inkscape.org/namespaces/inkscape"
   xmlns:sodipodi="http://sodipodi.sourceforge.net/DTD/sodipodi-0.dtd"
   xmlns="http://www.w3.org/2000/svg"
   xmlns:svg="http://www.w3.org/2000/svg">
  <sodipodi:namedview
     id="namedview1"
     pagecolor="#ffffff"
     bordercolor="#999999"
     borderopacity="1"
     inkscape:showpageshadow="0"
     inkscape:pageopacity="0"
     inkscape:pagecheckerboard="0"
     inkscape:deskcolor="#d1d1d1"
     inkscape:document-units="mm"
     inkscape:zoom="0.80553308"
     inkscape:cx="375.52772"
     inkscape:cy="233.38582"
     inkscape:window-width="1440"
     inkscape:window-height="847"
     inkscape:window-x="0"
     inkscape:window-y="25"
     inkscape:window-maximized="0"
     inkscape:current-layer="layer1"
     showguides="true">
    <sodipodi:guide
       position="218.50001,-7.5"
       orientation="1,0"
       id="guide4"
       inkscape:locked="false" />
    <sodipodi:guide
       position="218.50001,-7.4999999"
       orientation="0,-1"
       id="guide5"
       inkscape:locked="false" />
    <sodipodi:guide
       position="218.50001,143.5"
       orientation="0,-1"
       id="guide7"
       inkscape:locked="false" />
    <sodipodi:guide
       position="-7.5000003,143.5"
       orientation="1,0"
       id="guide8"
       inkscape:locked="false" />
    <sodipodi:guide
       position="0,68"
       orientation="0,-1"
       id="guide16"
       inkscape:locked="false" />
  </sodipodi:namedview>
  <defs
     id="defs1">
    <rect
       x="26.456694"
       y="75.533752"
       width="894.38403"
       height="889.61975"
       id="rect2" />
  </defs>
  <g
     inkscape:label="Laag 1"
     inkscape:groupmode="layer"
     id="layer1"
     transform="translate(-1.5,-1.5)">
    <rect
       style="fill:#800000;stroke-width:10;stroke-linejoin:round;paint-order:stroke fill markers"
       id="rect1"
       width="211"
       height="136"
       x="-212.5"
       y="1.5"
       transform="scale(-1,1)" />
    <rect
       style="fill:#00ffff;stroke-width:9.9999;stroke-linejoin:round;paint-order:stroke fill markers"
       id="rect1-9"
       width="207"
       height="132"
       x="-210.5"
       y="3.5"
       transform="scale(-1,1)" />
    <rect
       style="fill:#e6e6e6;stroke-width:10;stroke-linejoin:round;paint-order:stroke fill markers"
       id="rect1-3"
       width="205"
       height="130"
       x="4.5"
       y="4.5" />
    <rect
       style="fill:#0000ff;stroke-width:9.99997;stroke-linejoin:round;paint-order:stroke fill markers"
       id="rect1-3-7"
       width="193"
       height="120"
       x="10.5"
       y="9.5" />
    <g
       id="g1">
      <circle
         style="fill:#000080;stroke-width:10;stroke-linejoin:round;paint-order:stroke fill markers"
         id="circle3"
         cx="210.5"
         cy="135.5"
         r="9.5" />
      <circle
         style="fill:#ff0000;stroke-width:9.99998;stroke-linejoin:round;paint-order:stroke fill markers"
         id="circle8"
         cx="207.5"
         cy="132.5"
         r="3" />
      <circle
         style="fill:#00ff00;stroke-width:9.99997;stroke-linejoin:round;paint-order:stroke fill markers"
         id="circle9"
         cx="207.5"
         cy="132.5"
         r="1.25" />
    </g>
    <text
       xml:space="preserve"
       transform="matrix(0.26458333,0,0,0.26458333,-18.381202,-8.3132502)"
       id="text1"
       style="font-style:normal;font-variant:normal;font-weight:normal;font-stretch:normal;font-size:233.333px;line-height:1;font-family:Righteous;-inkscape-font-specification:Righteous;text-align:center;white-space:pre;shape-inside:url(#rect2);display:inline;fill:#000000;fill-opacity:1;stroke:none"
       x="293.89978"
       y="0"><tspan
         x="147.28986"
         y="260.60306"
         id="tspan2">VOOR
</tspan><tspan
         x="175.2602"
         y="493.93607"
         id="tspan4">DEUR</tspan></text>
    <g
       id="g4"
       transform="rotate(-90,144.5,69.5)">
      <circle
         style="fill:#000080;stroke-width:10;stroke-linejoin:round;paint-order:stroke fill markers"
         id="circle1"
         cx="210.5"
         cy="135.5"
         r="9.5" />
      <circle
         style="fill:#ff0000;stroke-width:9.99998;stroke-linejoin:round;paint-order:stroke fill markers"
         id="circle2"
         cx="207.5"
         cy="132.5"
         r="3" />
      <circle
         style="fill:#00ff00;stroke-width:9.99997;stroke-linejoin:round;paint-order:stroke fill markers"
         id="circle4"
         cx="207.5"
         cy="132.5"
         r="1.25" />
    </g>
    <g
       id="g14">
      <circle
         style="fill:#000080;stroke-width:10;stroke-linejoin:round;paint-order:stroke fill markers"
         id="circle5"
         cx="-3.5"
         cy="-3.5"
         r="9.5"
         transform="scale(-1)" />
      <circle
         style="fill:#ff0000;stroke-width:9.99998;stroke-linejoin:round;paint-order:stroke fill markers"
         id="circle6"
         cx="-6.5"
         cy="-6.5"
         r="3"
         transform="scale(-1)" />
      <circle
         style="fill:#00ff00;stroke-width:9.99997;stroke-linejoin:round;paint-order:stroke fill markers"
         id="circle7"
         cx="-6.5"
         cy="-6.5"
         r="1.25"
         transform="scale(-1)" />
    </g>
    <g
       id="g12"
       transform="rotate(90,107,32)">
      <circle
         style="fill:#000080;stroke-width:10;stroke-linejoin:round;paint-order:stroke fill markers"
         id="circle10"
         cx="210.5"
         cy="135.5"
         r="9.5" />
      <circle
         style="fill:#ff0000;stroke-width:9.99998;stroke-linejoin:round;paint-order:stroke fill markers"
         id="circle11"
         cx="207.5"
         cy="132.5"
         r="3" />
      <circle
         style="fill:#00ff00;stroke-width:9.99997;stroke-linejoin:round;paint-order:stroke fill markers"
         id="circle12"
         cx="207.5"
         cy="132.5"
         r="1.25" />
    </g>
    <path
       id="circle13"
       style="fill:#ff0000;stroke-width:9.99998;stroke-linejoin:round;paint-order:stroke fill markers"
       d="m 10.499742,61.529169 a 2,2 0 0 0 -1.999878,1.999878 v 4.364591 a 5,5 0 0 0 -2.999817,4.576982 5,5 0 0 0 4.999695,5.000211 5,5 0 0 0 5.000211,-5.000211 5,5 0 0 0 -2.999817,-4.580599 v -4.360974 a 2,2 0 0 0 -2.000394,-1.999878 z" />
    <path
       id="path16"
       style="fill:#ff0000;stroke-width:9.99998;stroke-linejoin:round;paint-order:stroke fill markers"
       d="m 203.49975,61.529169 a 2,2 0 0 0 -1.99988,1.999878 v 4.364591 a 5,5 0 0 0 -2.99982,4.576982 5,5 0 0 0 4.9997,5.000211 5,5 0 0 0 5.00021,-5.000211 5,5 0 0 0 -2.99982,-4.580599 v -4.360974 a 2,2 0 0 0 -2.00039,-1.999878 z" />
  </g>
</svg>
