<?xml version="1.0" encoding="UTF-8" standalone="no"?>
<!-- Created with Inkscape (http://www.inkscape.org/) -->

<svg
   width="213.99998mm"
   height="139mm"
   viewBox="0 0 213.99998 139"
   version="1.1"
   id="svg1"
   inkscape:version="1.3.2 (091e20e, 2023-11-25)"
   sodipodi:docname="text.svg"
   xmlns:inkscape="http://www.inkscape.org/namespaces/inkscape"
   xmlns:sodipodi="http://sodipodi.sourceforge.net/DTD/sodipodi-0.dtd"
   xmlns="http://www.w3.org/2000/svg"
   xmlns:svg="http://www.w3.org/2000/svg">
  <sodipodi:namedview
     id="namedview1"
     pagecolor="#ffffff"
     bordercolor="#999999"
     borderopacity="1"
     inkscape:showpageshadow="0"
     inkscape:pageopacity="0"
     inkscape:pagecheckerboard="0"
     inkscape:deskcolor="#d1d1d1"
     inkscape:document-units="mm"
     inkscape:zoom="0.72203717"
     inkscape:cx="285.99635"
     inkscape:cy="260.37441"
     inkscape:window-width="1440"
     inkscape:window-height="847"
     inkscape:window-x="0"
     inkscape:window-y="25"
     inkscape:window-maximized="0"
     inkscape:current-layer="layer1"
     showguides="false" />
  <defs
     id="defs1">
    <rect
       x="26.456693"
       y="75.533753"
       width="894.38406"
       height="889.61976"
       id="rect2" />
    <rect
       x="26.456693"
       y="75.533753"
       width="894.38406"
       height="889.61976"
       id="rect3" />
  </defs>
  <g
     inkscape:label="Laag 1"
     inkscape:groupmode="layer"
     id="layer1">
    <path
       id="rect1-3"
       style="fill:#ff00ff;stroke-width:10;stroke-linejoin:round;paint-order:stroke fill markers"
       d="M 4.4999837 4.4999837 L 4.4999837 134.4998 L 209.49987 134.4998 L 209.49987 4.4999837 L 4.4999837 4.4999837 z M 81.028646 15.369088 L 81.029163 15.369088 L 81.029679 15.369088 C 83.209852 15.369088 85.328256 15.66024 87.371411 16.240352 C 89.397834 16.79574 91.298888 17.587859 93.06047 18.619019 C 94.818917 19.648352 96.43012 20.894679 97.884981 22.34954 C 99.339847 23.804417 100.58615 25.415613 101.6155 27.174052 C 102.64656 28.93541 103.44079 30.836433 103.99624 32.86311 C 104.57639 34.90633 104.86543 37.024674 104.86543 39.204842 C 104.86543 41.383603 104.57767 43.503087 103.9983 45.545024 C 103.4428 47.552729 102.6475 49.452241 101.61912 51.230465 A 1.50015 1.50015 0 0 1 101.61499 51.236149 C 100.58564 52.994588 99.339324 54.607851 97.884465 56.062728 C 96.43215 57.515035 94.825265 58.768726 93.071838 59.816504 A 1.50015 1.50015 0 0 1 93.059953 59.822188 C 91.298577 60.853241 89.397049 61.645939 87.370378 62.201371 C 85.327214 62.781511 83.208806 63.072119 81.028646 63.072119 C 78.847828 63.072119 76.727103 62.781883 74.683297 62.201371 C 74.682097 62.20102 74.680363 62.201722 74.679163 62.201371 C 72.675237 61.646036 70.778721 60.852938 69.00354 59.826322 A 1.50015 1.50015 0 0 1 68.98597 59.816504 C 67.23255 58.768726 65.623584 57.515035 64.171277 56.062728 C 62.718955 54.610406 61.46527 53.00146 60.417501 51.248035 A 1.50015 1.50015 0 0 1 60.407682 51.230465 C 59.381243 49.455568 58.578538 47.561582 58.003178 45.558459 A 1.50015 1.50015 0 0 1 57.997493 45.539339 C 57.438882 43.498249 57.161369 41.382426 57.161369 39.205359 C 57.161369 37.028292 57.438863 34.912528 57.997493 32.871379 A 1.50015 1.50015 0 0 1 58.001628 32.857426 C 58.577099 30.832626 59.381575 28.934041 60.411816 27.174052 A 1.50015 1.50015 0 0 1 60.417501 27.162166 C 61.46527 25.408742 62.718955 23.801863 64.171277 22.34954 C 65.626138 20.894679 67.237334 19.648352 68.995789 18.619019 A 1.50015 1.50015 0 0 1 69.00354 18.613334 C 70.778919 17.586614 72.675488 16.795642 74.679163 16.240352 C 74.680363 16.240001 74.682097 16.240703 74.683297 16.240352 C 76.727094 15.659869 78.847823 15.369088 81.028646 15.369088 z M 129.04845 15.369088 L 129.04897 15.369088 C 131.22757 15.369134 133.34683 15.658967 135.38864 16.238285 C 137.41592 16.793706 139.31743 17.587431 141.07976 18.619019 C 142.83824 19.648355 144.45092 20.894681 145.90582 22.34954 C 147.36071 23.804418 148.60713 25.415596 149.63634 27.174052 C 150.66741 28.935413 151.46009 30.83642 152.01553 32.86311 C 152.59568 34.906338 152.88628 37.024674 152.88628 39.204842 C 152.88628 41.383602 152.59646 43.503078 152.01708 45.545024 C 151.46159 47.552742 150.66887 49.45224 149.64048 51.230465 A 1.50015 1.50015 0 0 1 149.63634 51.236149 C 148.60713 52.994605 147.36071 54.60785 145.90582 56.062728 C 144.45348 57.515034 142.84497 58.768723 141.09165 59.816504 A 1.50015 1.50015 0 0 1 141.07976 59.822188 C 139.31763 60.853669 137.41578 61.647972 135.38812 62.203438 C 133.34614 62.782828 131.22723 63.072119 129.04845 63.072119 C 126.8664 63.072119 124.74601 62.782586 122.70104 62.201371 C 120.69644 61.646011 118.79907 60.853245 117.02335 59.826322 A 1.50015 1.50015 0 0 1 117.00526 59.816504 C 115.25182 58.768725 113.64549 57.515039 112.19315 56.062728 C 110.74081 54.610406 109.48665 53.001468 108.43886 51.248035 A 1.50015 1.50015 0 0 1 108.42749 51.230465 C 107.40102 49.455555 106.59836 47.561577 106.02299 45.558459 A 1.50015 1.50015 0 0 1 106.01885 45.539339 C 105.46031 43.498498 105.18118 41.382689 105.18118 39.205359 C 105.18118 37.028029 105.46029 34.912279 106.01885 32.871379 A 1.50015 1.50015 0 0 1 106.02299 32.857426 C 106.59846 30.832631 107.40084 28.934056 108.43111 27.174052 A 1.50015 1.50015 0 0 1 108.43938 27.162166 C 109.48704 25.408734 110.74081 23.801862 112.19315 22.34954 C 113.64804 20.894675 115.25932 19.648353 117.01766 18.619019 A 1.50015 1.50015 0 0 1 117.02335 18.613334 C 118.79927 17.586307 120.69669 16.795665 122.70104 16.240352 C 124.74583 15.65921 126.86658 15.369134 129.04845 15.369088 z M 157.05243 15.91014 L 157.05295 15.91014 L 174.35577 15.91014 C 176.07081 15.91014 177.73727 16.140604 179.33789 16.599504 C 180.9258 17.034948 182.41806 17.67032 183.79912 18.501713 C 185.1944 19.309654 186.46424 20.295207 187.59785 21.449337 C 188.74899 22.581195 189.73298 23.849936 190.53927 25.242387 C 191.36799 26.639187 192.00163 28.136752 192.43735 29.722734 C 192.89806 31.326235 193.12878 32.994599 193.12878 34.713127 C 193.12878 36.325873 192.91952 37.906003 192.50401 39.439453 C 192.11128 40.962262 191.53294 42.415296 190.7713 43.786991 L 190.76923 43.791125 C 190.02506 45.166653 189.10468 46.436885 188.01695 47.58986 C 187.22794 48.42621 186.29148 49.092333 185.36491 49.769572 L 189.72434 60.052665 A 1.50015 1.50015 0 0 1 188.34303 62.138843 L 179.14772 62.138843 A 1.50015 1.50015 0 0 1 177.77106 61.232438 L 174.39814 53.431881 L 167.20478 53.476322 L 167.20478 60.638676 A 1.50015 1.50015 0 0 1 165.70461 62.138843 L 157.05243 62.138843 A 1.50015 1.50015 0 0 1 155.55226 60.638676 L 155.55226 17.410307 A 1.50015 1.50015 0 0 1 157.05243 15.91014 z M 20.650419 15.910657 L 30.476693 15.910657 A 1.50015 1.50015 0 0 1 31.913814 16.980876 L 39.101489 41.029537 L 46.312419 16.978809 A 1.50015 1.50015 0 0 1 47.750057 15.910657 L 57.636792 15.910657 A 1.50015 1.50015 0 0 1 59.062545 17.879012 L 44.863411 61.105831 A 1.50015 1.50015 0 0 1 43.439209 62.136776 L 34.787024 62.136776 A 1.50015 1.50015 0 0 1 33.361271 61.103764 L 19.224666 17.877462 A 1.50015 1.50015 0 0 1 20.650419 15.910657 z M 45.021541 77.645907 C 47.140471 77.645907 49.189382 77.926823 51.1545 78.487716 C 53.121934 79.023521 54.972898 79.797321 56.69318 80.807987 C 58.41069 81.817023 59.972572 83.033586 61.368864 84.450659 C 62.762565 85.845021 63.96639 87.403987 64.972778 89.116524 L 64.974845 89.118591 C 65.986168 90.820061 66.759725 92.662212 67.295117 94.628333 C 67.855604 96.592804 68.134859 98.641085 68.134859 100.75922 C 68.134859 102.87743 67.855998 104.93564 67.296667 106.9175 C 66.760418 108.86887 65.98604 110.71225 64.974845 112.43345 A 1.50015 1.50015 0 0 1 64.970711 112.43965 C 63.964703 114.13061 62.762371 115.6855 61.372998 117.09621 A 1.50015 1.50015 0 0 1 61.365247 117.10396 C 59.969104 118.5001 58.40814 119.70602 56.69318 120.71356 C 54.973289 121.72397 53.1232 122.50891 51.156051 123.06484 A 1.50015 1.50015 0 0 1 51.146232 123.06691 C 49.183421 123.60616 47.137227 123.87564 45.021541 123.87564 L 31.998047 123.87564 A 1.50015 1.50015 0 0 1 30.49788 122.37496 L 30.49788 79.14659 A 1.50015 1.50015 0 0 1 31.998047 77.646423 L 45.021541 77.645907 z M 72.363025 77.646423 L 101.99429 77.646423 A 1.50015 1.50015 0 0 1 103.49394 79.14659 L 103.49394 87.798775 A 1.50015 1.50015 0 0 1 101.99429 89.298942 L 82.513826 89.298942 L 82.513826 94.949243 L 95.212793 94.949243 A 1.50015 1.50015 0 0 1 96.71296 96.44941 L 96.71296 105.1016 A 1.50015 1.50015 0 0 1 95.212793 106.60176 L 82.513826 106.60176 L 82.513826 112.22261 L 101.99429 112.22261 A 1.50015 1.50015 0 0 1 103.49394 113.72277 L 103.49394 122.37289 A 1.50015 1.50015 0 0 1 101.99429 123.87306 L 72.363025 123.87306 A 1.50015 1.50015 0 0 1 70.863375 122.37289 L 70.863375 79.14659 A 1.50015 1.50015 0 0 1 72.363025 77.646423 z M 107.57018 77.646423 L 116.19342 77.646423 A 1.50015 1.50015 0 0 1 117.69359 79.14659 L 117.69359 105.1016 C 117.69359 106.09604 117.87751 106.9961 118.23671 107.84975 C 118.6276 108.72981 119.13616 109.4794 119.78545 110.12868 C 120.43334 110.77657 121.18131 111.28746 122.0587 111.67794 C 122.93751 112.0405 123.85074 112.22261 124.84406 112.22261 C 125.84165 112.22261 126.74478 112.03986 127.60151 111.67794 C 128.50159 111.28605 129.25717 110.77418 129.90267 110.12868 C 130.55039 109.48091 131.04924 108.73926 131.41989 107.86318 A 1.50015 1.50015 0 0 1 131.43022 107.83993 C 131.8076 106.98674 131.99659 106.09217 131.99659 105.1016 L 131.99659 79.14659 A 1.50015 1.50015 0 0 1 133.49624 77.646423 L 142.14688 77.646423 A 1.50015 1.50015 0 0 1 143.64705 79.14659 L 143.64705 105.1016 C 143.64705 107.68209 143.15531 110.14665 142.17013 112.44533 A 1.50015 1.50015 0 0 1 142.16807 112.44947 C 141.19255 114.70395 139.84362 116.69942 138.14247 118.40052 A 1.50015 1.50015 0 0 1 138.13627 118.40621 C 136.43328 120.08736 134.42705 121.42326 132.15576 122.39666 C 129.87604 123.38215 127.42194 123.87306 124.84354 123.87306 C 122.26302 123.87306 119.80051 123.3818 117.50187 122.39666 A 1.50015 1.50015 0 0 1 117.49619 122.3946 C 115.2454 121.4207 113.25156 120.08515 111.55081 118.40621 A 1.50015 1.50015 0 0 1 111.53738 118.39329 C 109.85855 116.69269 108.52499 114.70083 107.55106 112.44998 A 1.50015 1.50015 0 0 1 107.54899 112.44585 C 106.56381 110.14715 106.07053 107.68262 106.07053 105.10211 L 106.07053 79.14659 A 1.50015 1.50015 0 0 1 107.57018 77.646423 z M 149.65236 77.646423 L 166.95725 77.646423 C 168.67239 77.646423 170.33679 77.876922 171.93731 78.335787 C 173.52547 78.771305 175.01758 79.407172 176.39854 80.238513 C 177.79392 81.046541 179.06382 82.031637 180.19727 83.18562 C 181.34786 84.316946 182.33244 85.582487 183.13869 86.974536 C 183.96825 88.372139 184.60118 89.87163 185.03728 91.459017 C 185.49799 93.062528 185.72872 94.730872 185.72872 96.44941 C 185.72872 98.062514 185.51886 99.64258 185.10343 101.17574 C 184.71131 102.69619 184.13362 104.14926 183.3733 105.51966 C 182.6284 106.89813 181.70712 108.17104 180.6174 109.32614 C 179.82814 110.16276 178.89144 110.82887 177.96485 111.50586 L 182.32427 121.78895 A 1.50015 1.50015 0 0 1 180.94348 123.87513 L 171.75024 123.87513 A 1.50015 1.50015 0 0 1 170.37306 122.96872 L 166.99808 115.16816 L 159.80472 115.21312 L 159.80472 122.37496 A 1.50015 1.50015 0 0 1 158.30455 123.87513 L 149.65236 123.87513 A 1.50015 1.50015 0 0 1 148.1522 122.37496 L 148.1522 79.14659 A 1.50015 1.50015 0 0 1 149.65236 77.646423 z " />
    <path
       id="path3"
       style="font-size:233.333px;line-height:1;font-family:Righteous;-inkscape-font-specification:Righteous;text-align:center;white-space:pre;fill:#000080;stroke-width:0.264583"
       d="M 81.029163 16.868221 C 78.979337 16.868221 76.999661 17.139524 75.090507 17.682125 C 73.201451 18.20463 71.42291 18.947855 69.754915 19.91248 C 68.107014 20.877103 66.599778 22.042872 65.233228 23.409424 C 63.866677 24.775974 62.691033 26.283213 61.706311 27.931112 C 60.741687 29.579013 59.988069 31.357551 59.445467 33.266703 C 58.922964 35.175855 58.662052 37.155532 58.662052 39.205359 C 58.662052 41.255186 58.922964 43.234346 59.445467 45.143498 C 59.988069 47.032554 60.741687 48.811094 61.706311 50.479089 C 62.691033 52.12699 63.866677 53.634227 65.233228 55.000777 C 66.599778 56.36733 68.107014 57.542974 69.754915 58.527694 C 71.42291 59.492317 73.201451 60.236059 75.090507 60.758565 C 76.999661 61.301167 78.979337 61.572469 81.029163 61.572469 C 83.07899 61.572469 85.058149 61.301167 86.967301 60.758565 C 88.876454 60.236059 90.654992 59.492317 92.302893 58.527694 C 93.950792 57.542974 95.458029 56.36733 96.824581 55.000777 C 98.191132 53.634227 99.356901 52.12699 100.32153 50.479089 C 101.28615 48.811094 102.02989 47.032554 102.5524 45.143498 C 103.095 43.234346 103.3663 41.255186 103.3663 39.205359 C 103.3663 37.155532 103.095 35.175855 102.5524 33.266703 C 102.02989 31.357551 101.28615 29.579013 100.32153 27.931112 C 99.356901 26.283213 98.191132 24.775974 96.824581 23.409424 C 95.458029 22.042872 93.950792 20.877103 92.302893 19.91248 C 90.654992 18.947855 88.876454 18.20463 86.967301 17.682125 C 85.058149 17.139524 83.07899 16.868221 81.029163 16.868221 z M 129.04949 16.868221 C 126.99966 16.868221 125.01998 17.139524 123.11083 17.682125 C 121.22177 18.20463 119.44323 18.947855 117.77524 19.91248 C 116.12734 20.877103 114.6201 22.042872 113.25355 23.409424 C 111.887 24.775974 110.71135 26.283213 109.72664 27.931112 C 108.76201 29.579013 108.00839 31.357551 107.46579 33.266703 C 106.94329 35.175855 106.68186 37.155532 106.68186 39.205359 C 106.68186 41.255186 106.94329 43.234346 107.46579 45.143498 C 108.00839 47.032554 108.76201 48.811094 109.72664 50.479089 C 110.71135 52.12699 111.887 53.634227 113.25355 55.000777 C 114.6201 56.36733 116.12734 57.542974 117.77524 58.527694 C 119.44323 59.492317 121.22177 60.236059 123.11083 60.758565 C 125.01998 61.301167 126.99966 61.572469 129.04949 61.572469 C 131.09931 61.572469 133.07847 61.301167 134.98763 60.758565 C 136.89678 60.236059 138.67532 59.492317 140.32322 58.527694 C 141.97112 57.542974 143.47835 56.36733 144.84491 55.000777 C 146.21146 53.634227 147.37723 52.12699 148.34185 50.479089 C 149.30648 48.811094 150.05022 47.032554 150.57272 45.143498 C 151.11532 43.234346 151.38663 41.255186 151.38663 39.205359 C 151.38663 37.155532 151.11532 35.175855 150.57272 33.266703 C 150.05022 31.357551 149.30648 29.579013 148.34185 27.931112 C 147.37723 26.283213 146.21146 24.775974 144.84491 23.409424 C 143.47835 22.042872 141.97112 20.877103 140.32322 19.91248 C 138.67532 18.947855 136.89678 18.20463 134.98763 17.682125 C 133.07847 17.139524 131.09931 16.868221 129.04949 16.868221 z M 20.649386 17.410824 L 34.787541 60.638159 L 43.438692 60.638159 L 57.636792 17.410824 L 47.74954 17.410824 L 39.097872 46.259192 L 30.476693 17.410824 L 20.649386 17.410824 z M 157.05346 17.410824 L 157.05346 60.638159 L 165.70513 60.638159 L 165.70513 51.986491 L 175.38154 51.926029 L 179.14927 60.638159 L 188.34354 60.638159 L 183.55055 49.33394 C 184.79653 48.550182 185.92176 47.625571 186.92657 46.560465 C 187.93139 45.495359 188.77545 44.32959 189.45872 43.063521 C 190.16209 41.797452 190.69482 40.461208 191.05656 39.054464 C 191.43839 37.64772 191.62913 36.200773 191.62913 34.713643 C 191.62913 33.126032 191.41811 31.598526 190.99609 30.131494 C 190.59416 28.66446 190.01154 27.288195 189.24788 26.00203 C 188.50432 24.715864 187.59998 23.550096 186.53487 22.505086 C 185.48986 21.439981 184.32409 20.535638 183.03792 19.792074 C 181.77185 19.028413 180.40546 18.445787 178.93843 18.04386 C 177.4714 17.621836 175.94389 17.410824 174.35628 17.410824 L 157.05346 17.410824 z M 81.029163 25.459428 C 82.918219 25.459428 84.696757 25.821164 86.364754 26.544633 C 88.052847 27.2681 89.50967 28.252485 90.735547 29.498458 C 91.98152 30.724335 92.96642 32.181674 93.689889 33.869767 C 94.413356 35.537764 94.775094 37.316303 94.775094 39.205359 C 94.775094 41.094415 94.413356 42.872954 93.689889 44.540951 C 92.96642 46.18885 91.98152 47.635798 90.735547 48.881771 C 89.50967 50.127744 88.052847 51.112127 86.364754 51.835596 C 84.696757 52.559065 82.918219 52.920801 81.029163 52.920801 C 79.120011 52.920801 77.331077 52.559065 75.663082 51.835596 C 73.995085 51.112127 72.538262 50.127744 71.292289 48.881771 C 70.046316 47.635798 69.061416 46.18885 68.337948 44.540951 C 67.614478 42.872954 67.252743 41.094415 67.252743 39.205359 C 67.252743 37.316303 67.614478 35.537764 68.337948 33.869767 C 69.061416 32.181674 70.046316 30.724335 71.292289 29.498458 C 72.538262 28.252485 73.995085 27.2681 75.663082 26.544633 C 77.331077 25.821164 79.120011 25.459428 81.029163 25.459428 z M 129.04949 25.459428 C 130.93854 25.459428 132.71708 25.821164 134.38508 26.544633 C 136.07317 27.2681 137.52999 28.252485 138.75587 29.498458 C 140.00184 30.724335 140.98675 32.181674 141.71021 33.869767 C 142.43369 35.537764 142.79542 37.316303 142.79542 39.205359 C 142.79542 41.094415 142.43369 42.872954 141.71021 44.540951 C 140.98675 46.18885 140.00184 47.635798 138.75587 48.881771 C 137.52999 50.127744 136.07317 51.112127 134.38508 51.835596 C 132.71708 52.559065 130.93854 52.920801 129.04949 52.920801 C 127.14034 52.920801 125.3514 52.559065 123.68341 51.835596 C 122.01541 51.112127 120.55859 50.127744 119.31261 48.881771 C 118.06664 47.635798 117.08174 46.18885 116.35827 44.540951 C 115.63481 42.872954 115.27307 41.094415 115.27307 39.205359 C 115.27307 37.316303 115.63481 35.537764 116.35827 33.869767 C 117.08174 32.181674 118.06664 30.724335 119.31261 29.498458 C 120.55859 28.252485 122.01541 27.2681 123.68341 26.544633 C 125.3514 25.821164 127.14034 25.459428 129.04949 25.459428 z M 165.70513 26.061975 L 174.35628 26.061975 C 175.54197 26.061975 176.65733 26.293257 177.70233 26.755473 C 178.74734 27.197592 179.66207 27.810363 180.44583 28.59412 C 181.22959 29.377877 181.84236 30.302487 182.28448 31.367594 C 182.7467 32.412604 182.97798 33.527961 182.97798 34.713643 C 182.97798 35.899328 182.7467 37.024559 182.28448 38.089665 C 181.84236 39.134674 181.22959 40.049409 180.44583 40.833167 C 179.66207 41.616925 178.74734 42.239571 177.70233 42.701786 C 176.65733 43.143905 175.54197 43.365312 174.35628 43.365312 L 165.70513 43.365312 L 165.70513 26.061975 z M 31.99908 79.14659 L 31.99908 122.37393 L 45.021541 122.37393 C 47.011079 122.37393 48.920072 122.1229 50.74884 121.62048 C 52.597703 121.09798 54.32583 120.36412 55.933537 119.41958 C 57.541244 118.47506 58.998583 117.34982 60.304846 116.04356 C 61.611109 114.7172 62.73634 113.26038 63.680868 111.67277 C 64.625395 110.06506 65.34887 108.34681 65.851278 106.51805 C 66.373783 104.66918 66.635209 102.7498 66.635209 100.76026 C 66.635209 98.770722 66.373783 96.861725 65.851278 95.032959 C 65.34887 93.184095 64.625395 91.465845 63.680868 89.878235 C 62.73634 88.270528 61.611109 86.813705 60.304846 85.507442 C 58.998583 84.181084 57.541244 83.04546 55.933537 82.100932 C 54.32583 81.156403 52.597703 80.432929 50.74884 79.930522 C 48.920072 79.408016 47.011079 79.14659 45.021541 79.14659 L 31.99908 79.14659 z M 72.362508 79.14659 L 72.362508 122.37393 L 101.99481 122.37393 L 101.99481 113.72277 L 81.014176 113.72277 L 81.014176 105.10108 L 95.212276 105.10108 L 95.212276 96.449927 L 81.014176 96.449927 L 81.014176 87.798258 L 101.99481 87.798258 L 101.99481 79.14659 L 72.362508 79.14659 z M 107.57121 79.14659 L 107.57121 105.10108 C 107.57121 107.49254 108.02338 109.74352 108.92772 111.85364 C 109.83205 113.94366 111.05811 115.7721 112.60553 117.33961 C 114.17305 118.88703 116.002 120.11309 118.09202 121.01742 C 120.20213 121.92176 122.45259 122.37393 124.84406 122.37393 C 127.23553 122.37393 129.47611 121.92176 131.56613 121.01742 C 133.67624 120.11309 135.51507 118.88703 137.08259 117.33961 C 138.6501 115.7721 139.88603 113.94366 140.79037 111.85364 C 141.69471 109.74352 142.14688 107.49254 142.14688 105.10108 L 142.14688 79.14659 L 133.49573 79.14659 L 133.49573 105.10108 C 133.49573 106.28676 133.26445 107.40212 132.80223 108.44713 C 132.36011 109.49214 131.74733 110.40636 130.96358 111.19011 C 130.17982 111.97387 129.25521 112.59703 128.19011 113.05925 C 127.1451 113.50137 126.02974 113.72277 124.84406 113.72277 C 123.65838 113.72277 122.53315 113.50137 121.46804 113.05925 C 120.42303 112.59703 119.5083 111.97387 118.72454 111.19011 C 117.94078 110.40636 117.31814 109.49214 116.85592 108.44713 C 116.4138 107.40212 116.19291 106.28676 116.19291 105.10108 L 116.19291 79.14659 L 107.57121 79.14659 z M 149.65288 79.14659 L 149.65288 122.37393 L 158.30455 122.37393 L 158.30455 113.72277 L 167.98096 113.66231 L 171.74921 122.37393 L 180.94296 122.37393 L 176.14997 111.06971 C 177.39594 110.28595 178.52169 109.36185 179.52651 108.29675 C 180.53133 107.23164 181.37538 106.06588 182.05865 104.7998 C 182.76203 103.53373 183.29424 102.19749 183.65597 100.79075 C 184.03781 99.384002 184.22906 97.937057 184.22906 96.449927 C 184.22906 94.862316 184.01805 93.334809 183.59603 91.867778 C 183.1941 90.400744 182.61096 89.023962 181.8473 87.737797 C 181.10373 86.45163 180.19939 85.286379 179.13429 84.24137 C 178.08927 83.176264 176.92402 82.271922 175.63786 81.528357 C 174.37179 80.764696 173.00489 80.181554 171.53785 79.779626 C 170.07082 79.357604 168.54382 79.14659 166.95622 79.14659 L 149.65288 79.14659 z M 40.710693 87.798258 L 45.021541 87.798258 C 46.810116 87.798258 48.487827 88.139727 50.055343 88.823002 C 51.642954 89.506277 53.019736 90.440764 54.185323 91.626449 C 55.371007 92.792036 56.295618 94.158942 56.958797 95.726457 C 57.642074 97.29397 57.983541 98.971685 57.983541 100.76026 C 57.983541 102.54884 57.642074 104.23694 56.958797 105.82455 C 56.295618 107.39206 55.371007 108.76884 54.185323 109.95453 C 53.019736 111.12011 51.642954 112.04472 50.055343 112.728 C 48.487827 113.39118 46.810116 113.72277 45.021541 113.72277 L 40.710693 113.72277 L 40.710693 87.798258 z M 158.30455 87.798258 L 166.95622 87.798258 C 168.1419 87.798258 169.25725 88.029541 170.30227 88.491756 C 171.34727 88.933876 172.26149 89.546646 173.04525 90.330404 C 173.82901 91.11416 174.44178 92.038772 174.8839 93.103878 C 175.34611 94.148887 175.5774 95.264242 175.5774 96.449927 C 175.5774 97.635612 175.34611 98.760842 174.8839 99.825948 C 174.44178 100.87096 173.82901 101.78517 173.04525 102.56893 C 172.26149 103.35269 171.34727 103.97585 170.30227 104.43807 C 169.25725 104.88019 168.1419 105.10108 166.95622 105.10108 L 158.30455 105.10108 L 158.30455 87.798258 z " />
  </g>
</svg>
